<svg width="29" height="30" viewBox="0 0 29 30" fill="none" xmlns="http://www.w3.org/2000/svg">
<path d="M24.6896 5.06242C21.9725 2.26531 18.6529 0.84668 14.824 0.84668C10.9595 0.84668 7.63056 2.26692 4.92894 5.06402C2.22265 7.86112 0.850098 11.3089 0.850098 15.3061C0.850098 19.2664 2.2211 22.7013 4.92428 25.5145C7.62746 28.3357 10.9579 29.7656 14.824 29.7656C18.6545 29.7656 21.974 28.3357 24.6927 25.5193C27.4177 22.703 28.798 19.2664 28.798 15.3061C28.798 11.3089 27.4161 7.86112 24.6896 5.06242ZM22.4973 23.2476C20.7319 25.0775 18.715 26.1202 16.3767 26.4367V18.5194H19.482V15.3061H16.3767V13.0569C16.3767 12.9302 16.4008 12.8047 16.4478 12.6876C16.4947 12.5706 16.5634 12.4642 16.6501 12.3747C16.7368 12.2852 16.8397 12.2142 16.9529 12.1658C17.0661 12.1175 17.1874 12.0927 17.3098 12.0929H19.482V8.87971H17.313C16.1609 8.87971 15.1998 9.31832 14.4297 10.2003C13.6595 11.0792 13.2714 12.1524 13.2714 13.4264V15.3061H10.1661V18.5194H13.2714V26.4399C10.9082 26.1266 8.88356 25.0823 7.1275 23.2524C4.9926 21.0289 3.95542 18.4294 3.95542 15.3061C3.95542 12.1476 4.99104 9.54163 7.12595 7.33737C9.25309 5.1315 11.7715 4.05989 14.824 4.05989C17.844 4.05989 20.3546 5.13311 22.5019 7.34219C24.6493 9.54645 25.6927 12.1524 25.6927 15.3061C25.6927 18.4246 24.6477 21.0241 22.4973 23.2476Z" fill="#BCB5B5"/>
</svg>
