<svg width="29" height="30" viewBox="0 0 29 30" fill="none" xmlns="http://www.w3.org/2000/svg">
<path d="M14.5862 0.84668C6.82295 0.84668 0.612305 7.27311 0.612305 15.3061C0.612305 23.3392 6.82295 29.7656 14.5862 29.7656C22.3495 29.7656 28.5602 23.3392 28.5602 15.3061C28.5602 7.27311 22.3495 0.84668 14.5862 0.84668ZM14.5862 12.0929C16.2942 12.0929 17.6916 13.5389 17.6916 15.3061C17.6916 17.0734 16.2942 18.5194 14.5862 18.5194C12.8783 18.5194 11.4809 17.0734 11.4809 15.3061C11.4809 13.5389 12.8783 12.0929 14.5862 12.0929ZM18.9337 8.87971C18.9337 7.75509 19.8653 6.95179 20.7969 6.95179C21.7285 6.95179 22.6601 7.91575 22.6601 8.87971C22.6601 9.84368 21.8837 10.8076 20.7969 10.8076C19.71 10.8076 18.9337 10.0043 18.9337 8.87971ZM14.5862 26.5524C8.53087 26.5524 3.71763 21.5719 3.71763 15.3061H8.37561C8.37561 18.8407 11.1704 21.7326 14.5862 21.7326C18.0021 21.7326 20.7969 18.8407 20.7969 15.3061H25.4549C25.4549 21.5719 20.6416 26.5524 14.5862 26.5524Z" fill="#BCB5B5"/>
</svg>
