<svg width="74" height="74" viewBox="0 0 74 74" fill="none" xmlns="http://www.w3.org/2000/svg">
<path fill-rule="evenodd" clip-rule="evenodd" d="M74 37C74 57.4345 57.4345 74 37 74C16.5655 74 0 57.4345 0 37C0 16.5655 16.5655 0 37 0C57.4345 0 74 16.5655 74 37ZM57.8819 39.0445H63.176C63.176 25.4652 52.924 15.2238 39.3261 15.2238V20.5179C50.0784 20.5179 57.8819 28.3081 57.8819 39.0445ZM47.2942 39.047C47.2942 33.4803 44.9198 31.1059 39.3531 31.1059V25.8118C47.8898 25.8118 52.5883 30.5103 52.5883 39.047H47.2942ZM46.5472 44.8261C47.2342 44.8049 47.9026 45.0515 48.4113 45.5138L59.1688 55.2972C59.6784 55.7607 59.9872 56.4046 60.0297 57.0921C60.0722 57.7796 59.8451 58.4566 59.3965 58.9793L54.473 64.726C54.0159 65.1857 53.4049 65.4601 52.7577 65.4963C52.6703 65.5016 52.3421 65.5175 51.8074 65.5175C48.1492 65.5175 34.8663 64.7419 24.2622 54.1405C12.107 41.9799 12.8641 26.3041 12.9038 25.6424C12.9406 24.995 13.2138 24.3837 13.6714 23.9244L19.4155 18.9983C19.9385 18.55 20.6157 18.3233 21.3032 18.3663C21.9908 18.4093 22.6344 18.7186 23.0975 19.2286L32.8784 29.9835C33.3413 30.4919 33.5883 31.1604 33.567 31.8476C33.5458 32.5348 33.258 33.1868 32.7646 33.6656L26.2555 40.0026C26.5387 41.5167 27.4943 44.5899 30.6496 47.7479C33.8048 50.8952 36.8701 51.8508 38.3948 52.142L44.7292 45.6276C45.2083 45.1347 45.8602 44.8474 46.5472 44.8261Z" fill="#95C11F"/>
</svg>
